<svg viewBox="0 0 1024 1024">
    <path
        d="M853.333333 149.333333H170.666667c-46.933333 0-85.333333 38.4-85.333334 85.333334v554.666666c0 46.933333 38.4 85.333333 85.333334 85.333334h106.666666v-27.733334c-12.8-6.4-21.333333-21.333333-21.333333-36.266666 0-23.466667 19.2-42.666667 42.666667-42.666667s42.666667 19.2 42.666666 42.666667c0 14.933333-8.533333 29.866667-21.333333 36.266666V874.666667h384v-27.733334c-12.8-6.4-21.333333-21.333333-21.333333-36.266666 0-23.466667 19.2-42.666667 42.666666-42.666667s42.666667 19.2 42.666667 42.666667c0 14.933333-8.533333 29.866667-21.333333 36.266666V874.666667h106.666666c46.933333 0 85.333333-38.4 85.333334-85.333334V234.666667c0-46.933333-38.4-85.333333-85.333334-85.333334z"
        fill="currentColor" />
    <path
        d="M512 384m-85.333333 0a85.333333 85.333333 0 1 0 170.666666 0 85.333333 85.333333 0 1 0-170.666666 0Z"
        fill="#ffffff" />
    <path
        d="M661.333333 597.333333s-40.533333-85.333333-149.333333-85.333333-149.333333 85.333333-149.333333 85.333333v42.666667h298.666666v-42.666667z"
        fill="#ffffff" />
</svg>