<svg viewBox="0 0 512.000000 512.000000">
    <g transform="translate(0.000000,512.000000) scale(0.100000,-0.100000)" fill="currentColor" stroke="none">
        <path
            d="M2734 4716 c-2 -6 -3 -981 -2 -2166 l3 -2155 45 3 c25 2 86 10 135 18 697 117 1287 556 1595 1189 151 308 208 549 217 908 l6 217 -526 0 -526 0 -100 -167 -99 -168 450 -3 451 -2 -7 -63 c-30 -264 -157 -591 -324 -827 -86 -123 -309 -346 -432 -432 -115 -81 -313 -185 -433 -227 -49 -17 -94 -31 -100 -31 -9 0 -12 420 -12 1750 0 1241 3 1750 11 1750 24 0 163 -53 258 -98 311 -149 568 -375 754 -662 66 -102 161 -297 193 -397 l23 -73 178 0 178 0 -6 28 c-20 88 -94 286 -154 407 -271 553 -768 970 -1353 1134 -177 50 -415 87 -423 67z" />
        <path
            d="M2260 4713 c-296 -47 -567 -142 -803 -283 -597 -355 -986 -962 -1058 -1649 -16 -156 -7 -443 20 -591 106 -594 443 -1110 937 -1438 88 -58 215 -132 227 -132 4 0 7 87 7 193 l0 192 -92 65 c-111 78 -276 234 -364 344 -206 256 -350 595 -389 918 l-7 58 748 2 748 3 77 168 77 167 -825 0 -825 0 7 58 c10 90 54 278 86 371 42 119 136 310 205 411 297 441 754 729 1272 801 l82 12 0 169 0 168 -52 -1 c-29 -1 -64 -4 -78 -6z" />
    </g>
</svg>